<?xml version="1.0" encoding="utf-8"?>
<!-- Generator: Adobe Illustrator 16.0.0, SVG Export Plug-In . SVG Version: 6.00 Build 0)  -->
<svg version="1.2" baseProfile="tiny" id="Layer_1" xmlns="http://www.w3.org/2000/svg" xmlns:xlink="http://www.w3.org/1999/xlink"
	 x="0px" y="0px" width="698.508px" height="447.022px" viewBox="0 0 698.508 447.022" xml:space="preserve">
<g>
	<g>
		<g>
			<path fill="#00aeef" d="M502.35,247.065H222.628c-0.429,0.02-0.853,0.068-1.287,0.068c0.002,0-6.876,6.881-6.876,6.881v0.01
				v33.807h296.132v-33.807l-6.877-6.877C503.268,247.147,502.807,247.094,502.35,247.065z"/>
		</g>
		<g>
			<path fill="#00aeef" d="M258.712,2.307l-8.183,8.181h-0.035v145.827c20.506,23.274,13.333,62.479-5.992,80.807h237.438
				c-46.712-41.879-71.185-201.008,208.291-201.008V2.307H258.712z"/>
		</g>
	</g>
	<g>
		<g>
			<path fill="#00aeef" d="M196.51,18.67H8.276c0,0,115.888,93.998,188.234,117.658V18.67z"/>
		</g>
		<g>
			<path fill="#00aeef" d="M214.673,10.488l-8.182,8.182h-0.039v119.336c14.34,0.688,25.574,4.256,34.1,9.742V10.488H214.673z"/>
		</g>
	</g>
</g>
<polyline id="_x3C_Slice_x3E_" fill="none" points="0,444.499 0,-15.501 705,-15.501 705,444.499 "/>
<g>
	<path fill="#ffffff" d="M97.473,410.047l43.758-85.527h1.638l43.758,85.527h-17.784l-6.669-13.455h-40.365l-6.552,13.455H97.473z
		 M129.765,382.318h24.453l-12.168-25.857L129.765,382.318z"/>
	<path fill="#ffffff" d="M282.916,324.52v85.527h-16.38v-43.29l-26.793,32.175l-26.676-32.175v43.29h-16.38V324.52h1.053
		l42.003,49.374l42.12-49.374H282.916z"/>
	<path fill="#ffffff" d="M364.464,348.222c0,1.722-0.351,3.559-1.053,5.515s-1.658,3.757-2.867,5.398
		c-1.21,1.642-2.672,3.031-4.387,4.165c-1.717,1.135-3.589,1.742-5.616,1.819c2.106,0.157,4.192,0.761,6.26,1.81
		c2.065,1.049,3.919,2.47,5.557,4.259c1.638,1.79,2.984,3.852,4.037,6.185c1.053,2.335,1.58,4.825,1.58,7.468
		c0,4.669-0.702,8.616-2.106,11.844c-1.404,3.229-3.316,5.835-5.733,7.819c-2.419,1.985-5.247,3.404-8.482,4.26
		c-3.238,0.855-6.689,1.283-10.355,1.283h-39.546v-85.644h37.674c3.431,0,6.669,0.333,9.711,0.998
		c3.042,0.666,5.693,1.878,7.956,3.636c2.261,1.76,4.055,4.187,5.382,7.276C363.801,339.403,364.464,343.374,364.464,348.222z
		 M318.133,359.269h20.124c1.638,0,3.061-0.313,4.271-0.941c1.208-0.627,2.223-1.452,3.042-2.472
		c0.819-1.021,1.442-2.178,1.872-3.472c0.428-1.294,0.644-2.568,0.644-3.825c0-1.254-0.234-2.47-0.702-3.647
		c-0.468-1.177-1.093-2.197-1.872-3.061c-0.781-0.862-1.697-1.568-2.75-2.117c-1.053-0.548-2.165-0.825-3.334-0.825h-21.294V359.269
		z M341.298,395.539c1.404,0,2.729-0.331,3.978-0.994c1.247-0.662,2.34-1.56,3.276-2.691c0.936-1.13,1.676-2.378,2.223-3.744
		c0.545-1.364,0.819-2.75,0.819-4.153c0-2.885-1.073-5.304-3.218-7.254c-2.146-1.949-5.089-2.925-8.833-2.925h-21.411v21.762
		H341.298z"/>
	<path fill="#ffffff" d="M423.081,411.685c-6.084,0-11.817-1.17-17.199-3.51c-5.382-2.34-10.082-5.517-14.098-9.536
		c-4.019-4.016-7.196-8.716-9.536-14.098c-2.34-5.382-3.51-11.154-3.51-17.316c0-6.084,1.17-11.835,3.51-17.258
		c2.34-5.42,5.517-10.139,9.536-14.157c4.016-4.017,8.716-7.196,14.098-9.536c5.382-2.34,11.115-3.51,17.199-3.51
		c6.161,0,11.934,1.17,17.316,3.51s10.081,5.519,14.099,9.536c4.016,4.018,7.195,8.736,9.536,14.157
		c2.34,5.422,3.51,11.174,3.51,17.258c0,6.162-1.17,11.934-3.51,17.316c-2.34,5.382-5.52,10.082-9.536,14.098
		c-4.018,4.019-8.717,7.196-14.099,9.536C435.015,410.515,429.241,411.685,423.081,411.685z M423.139,338.092
		c-3.892,0-7.532,0.801-10.917,2.398c-3.386,1.6-6.344,3.726-8.874,6.376c-2.53,2.653-4.534,5.753-6.013,9.302
		c-1.479,3.55-2.217,7.235-2.217,11.057c0,3.901,0.738,7.604,2.217,11.115s3.483,6.61,6.013,9.301
		c2.53,2.691,5.488,4.837,8.874,6.436c3.385,1.6,7.025,2.398,10.917,2.398c3.89,0,7.53-0.799,10.916-2.398
		c3.386-1.598,6.344-3.744,8.874-6.436c2.53-2.691,4.534-5.791,6.013-9.301c1.479-3.51,2.219-7.214,2.219-11.115
		c0-3.821-0.741-7.506-2.219-11.057c-1.479-3.548-3.483-6.649-6.013-9.302c-2.53-2.65-5.488-4.777-8.874-6.376
		C430.669,338.893,427.029,338.092,423.139,338.092z"/>
	<path fill="#ffffff" d="M543.707,395.539v14.508h-61.66v-85.644h16.38v71.136H543.707z"/>
	<path fill="#ffffff" d="M601.035,338.911h-24.453v71.136h-16.381v-71.136h-24.568v-14.508h65.402V338.911z"/>
</g>
</svg>
